# xmcd
# Copyright (C) 1995-1998 Ti Kan
#
# Track frame offsets:
#       150
#       23705
#       44967
#       59507
#       77452
#       87580
#       106632
#       127667
#       147160
#
# Disc length: 2265 seconds
#
# Revision: 0
# Processed by: cddbd v1.5.2PL0 Copyright (c) Steve Scherf et al.
# Submitted via: CD-Import v1.0
#
DISCID=6f08d709
DTITLE=Ella Fitzgerald Duke Ellington - The Stockholm Concert, 1966
DYEAR=1900
DGENRE=
TTITLE0=Imagine My Frustration
TTITLE1=Duke's Place
TTITLE2=Satin Doll
TTITLE3=Something To Live For
TTITLE4=Wives And Lovers
TTITLE5=So Danco Samba
TTITLE6=Let's Do It
TTITLE7=Lover Man
TTITLE8=Cottontail
EXTD=
EXTT0=
EXTT1=
EXTT2=
EXTT3=
EXTT4=
EXTT5=
EXTT6=
EXTT7=
EXTT8=
PLAYORDER=
